<?xml version="1.0" encoding="UTF-8"?>
<svg version="1.1" xmlns="http://www.w3.org/2000/svg" width="576" height="694">
<path d="M0 0 C190.08 0 380.16 0 576 0 C576 229.02 576 458.04 576 694 C385.92 694 195.84 694 0 694 C0 464.98 0 235.96 0 0 Z " fill="#151616" transform="translate(0,0)"/>
<path d="M0 0 C26.73 0 53.46 0 81 0 C81.99 11.385 81.99 11.385 83 23 C83.51874066 27.16407275 84.0470025 31.24939605 84.75 35.375 C84.99943359 36.85540771 84.99943359 36.85540771 85.25390625 38.36572266 C86.87064295 47.32610778 89.60104934 55.57691735 93 64 C93.32742187 64.89074219 93.65484375 65.78148437 93.9921875 66.69921875 C101.09236815 85.70633952 111.78981371 104.30800913 125.46240234 119.30517578 C126.5896416 120.54768053 127.70258336 121.80319649 128.80712891 123.06591797 C135.89326303 131.1052841 143.51186612 138.58941927 151.125 146.125 C171.33210572 166.12735338 171.33210572 166.12735338 179.4375 178.1875 C180.00170654 179.02192627 180.56591309 179.85635254 181.1472168 180.71606445 C192.32566544 197.33562017 201.43261708 214.0597731 208 233 C208.23952393 233.65299072 208.47904785 234.30598145 208.72583008 234.97875977 C212.83800592 246.56372866 214.70268441 258.95189525 217 271 C217.23130615 272.2063208 217.23130615 272.2063208 217.46728516 273.43701172 C220.89635488 292.20738131 220.41921033 313.27117939 217 332 C216.86045898 332.77069824 216.72091797 333.54139648 216.57714844 334.33544922 C215.49128006 340.24778353 214.32257881 346.13597017 213 352 C212.73300293 353.20277588 212.46600586 354.40555176 212.19091797 355.64477539 C209.95986798 365.32704465 206.79519958 374.31897323 202.875 383.4375 C202.5903186 384.10843689 202.30563721 384.77937378 202.0123291 385.47064209 C197.46573348 396.15942505 192.45627634 406.32510802 186 416 C185.42838135 416.87495117 185.42838135 416.87495117 184.84521484 417.76757812 C176.45891167 430.55963836 166.54793739 441.96796554 156 453 C155.23139648 453.80791992 154.46279297 454.61583984 153.67089844 455.44824219 C151.12935617 458.10589053 148.56766325 460.74259757 146 463.375 C145.1745166 464.23867188 144.3490332 465.10234375 143.49853516 465.9921875 C142.32363525 467.18328125 142.32363525 467.18328125 141.125 468.3984375 C140.07699219 469.47617432 140.07699219 469.47617432 139.0078125 470.57568359 C137 472 137 472 135.09741211 472.06201172 C131.96862664 470.47777044 129.73075328 468.096949 127.31640625 465.609375 C126.77902328 465.06774719 126.24164032 464.52611938 125.68797302 463.96807861 C123.97230072 462.23564474 122.26732888 460.49309908 120.5625 458.75 C119.41931658 457.59175978 118.27544338 456.43419992 117.13085938 455.27734375 C115.01594538 453.13798376 112.90521234 450.99467658 110.79907227 448.84667969 C108.99214391 447.00901857 107.17709261 445.1792931 105.35229492 443.359375 C103.37851092 441.37965019 101.44884603 439.37631498 99.546875 437.328125 C98.62370483 436.3371582 98.62370483 436.3371582 97.68188477 435.32617188 C97.04436279 434.64103516 96.40684082 433.95589844 95.75 433.25 C90.27468615 427.38430973 84.74432785 421.60422229 79 416 C80.65647339 411.70245905 83.90067081 408.82933469 87.109375 405.66015625 C87.71380432 405.05618515 88.31823364 404.45221405 88.940979 403.8299408 C90.21968106 402.55425562 91.50080849 401.28099756 92.78417969 400.01000977 C94.73425401 398.07809932 96.67629937 396.13840019 98.6171875 394.19726562 C99.86411441 392.95525821 101.11149587 391.71370694 102.359375 390.47265625 C103.222211 389.61148949 103.222211 389.61148949 104.10247803 388.73292542 C106.68812001 386.17707725 109.28929944 383.7126825 112.10253906 381.40795898 C114.91805358 379.06810225 117.44018488 376.61504384 120 374 C121.15986896 372.85181991 122.3220089 371.70593148 123.48583984 370.56176758 C127.028506 367.07289346 130.56167678 363.57456346 134.09179688 360.07299805 C135.60765081 358.57221837 137.12618801 357.07414384 138.64746094 355.57885742 C154.29133569 340.19458276 166.38051541 326.22378787 167.3125 303.3125 C166.56620794 277.52396332 153.13742227 262.94752717 135.74267578 245.61230469 C133.86764491 243.74266606 131.99806292 241.86769686 130.12890625 239.9921875 C128.91698738 238.78092903 127.70475855 237.56998058 126.4921875 236.359375 C125.6700325 235.53418365 125.6700325 235.53418365 124.83126831 234.69232178 C121.60889478 231.48907703 118.29113845 228.47560078 114.79129028 225.57720947 C103.58356982 215.70894688 91.507484 202.507484 82 193 C81.67 217.75 81.34 242.5 81 268 C54.27 268 27.54 268 0 268 C0 179.56 0 91.12 0 0 Z " fill="#19DE86" transform="translate(125,213)"/>
<path d="M0 0 C3.16211396 1.70580366 5.49325701 4.17481589 7.97241211 6.72607422 C8.53199112 7.28989807 9.09157013 7.85372192 9.66810608 8.43463135 C11.45510067 10.23839201 13.23140709 12.05227624 15.00756836 13.86669922 C16.19892948 15.07311627 17.39097966 16.27885326 18.58374023 17.48388672 C20.78653888 19.7111381 22.9851812 21.94232235 25.17919922 24.17822266 C27.02423651 26.05811807 28.87995793 27.92444525 30.74511719 29.78466797 C32.63753689 31.68285057 34.48677713 33.60078284 36.30444336 35.56982422 C37.15981689 36.49299438 37.15981689 36.49299438 38.0324707 37.43481445 C38.91733154 38.39109741 38.91733154 38.39109741 39.82006836 39.36669922 C45.12094748 45.07453285 50.49511886 50.67448661 56.07006836 56.11669922 C54.51207143 59.88548508 52.16070236 62.22941067 49.25756836 65.05419922 C48.40549805 65.88822266 47.55342773 66.72224609 46.67553711 67.58154297 C45.81573242 68.41814453 44.95592773 69.25474609 44.07006836 70.11669922 C41.73965274 72.43655404 39.41738405 74.76314433 37.11303711 77.10888672 C33.80827295 80.46235267 30.46585607 83.68576328 26.88256836 86.74169922 C24.49468571 88.7911053 22.60296366 90.67722486 20.57006836 93.11669922 C18.56268523 95.52555897 16.72931538 97.35820928 14.36889648 99.37060547 C8.22445955 104.68700936 2.44701073 110.36413856 -3.33862305 116.06542969 C-4.72568786 117.42593851 -6.11985911 118.77924222 -7.52124023 120.125 C-22.01780769 134.05574799 -31.5226658 148.00455513 -32.32788086 168.77734375 C-32.66178907 188.52739632 -24.20950728 202.24508987 -10.92993164 216.11669922 C-6.94160855 220.23231 -2.89877945 224.2927773 1.16088867 228.33789062 C2.96774683 230.13930942 4.76909202 231.94612071 6.57006836 233.75341797 C7.73380978 234.91649973 8.89786076 236.07927187 10.06225586 237.24169922 C10.59253387 237.77400146 11.12281189 238.30630371 11.66915894 238.85473633 C14.66050727 241.82740105 17.77567205 244.49082361 21.07006836 247.11669922 C21.83319336 248.04482422 22.59631836 248.97294922 23.38256836 249.92919922 C26.68914625 254.01361593 26.68914625 254.01361593 34.07006836 260.11669922 C40.34006836 266.38669922 46.61006836 272.65669922 53.07006836 279.11669922 C53.56506836 241.99169922 53.56506836 241.99169922 54.07006836 204.11669922 C80.80006836 204.11669922 107.53006836 204.11669922 135.07006836 204.11669922 C135.07006836 292.55669922 135.07006836 380.99669922 135.07006836 472.11669922 C108.34006836 472.11669922 81.61006836 472.11669922 54.07006836 472.11669922 C53.41006836 463.20669922 52.75006836 454.29669922 52.07006836 445.11669922 C49.58215009 430.82894003 46.53606375 418.10776301 40.82202148 404.88671875 C39.88445559 402.67978605 39.07687557 400.43229404 38.25756836 398.17919922 C32.70559935 384.50009259 25.17558102 371.70832722 16.07006836 360.11669922 C15.5217334 359.3903125 14.97339844 358.66392578 14.40844727 357.91552734 C6.66712409 348.00389943 -2.48072463 339.41951219 -11.42993164 330.61669922 C-31.89272094 310.48864688 -31.89272094 310.48864688 -38.92993164 301.11669922 C-39.41268555 300.48763672 -39.89543945 299.85857422 -40.39282227 299.21044922 C-46.90913829 290.5879491 -52.56029588 281.48293651 -57.92993164 272.11669922 C-58.55899414 271.03646484 -59.18805664 269.95623047 -59.83618164 268.84326172 C-64.16033487 261.16220006 -67.32388819 253.32675032 -70.23901367 245.03955078 C-70.87152663 243.27924264 -71.55267402 241.53660661 -72.23852539 239.79638672 C-89.82730288 194.31761628 -87.76020407 140.44702972 -70.92993164 95.11669922 C-69.98024029 93.06356741 -68.97190609 91.07066265 -67.91040039 89.07373047 C-66.86246351 86.98203175 -66.05689835 84.8719942 -65.24243164 82.67919922 C-59.72922777 68.72523748 -51.72931345 56.19504584 -42.92993164 44.11669922 C-42.02307617 42.85792969 -42.02307617 42.85792969 -41.09790039 41.57373047 C-35.9016086 34.63269837 -29.92456286 28.36350002 -23.92993164 22.11669922 C-23.06126465 21.20871582 -22.19259766 20.30073242 -21.29760742 19.36523438 C-18.85551582 16.81982883 -16.3960575 14.29208109 -13.92654419 11.77328491 C-12.93003349 10.75348755 -11.93771689 9.72957466 -10.94967651 8.7015686 C-9.54916583 7.2472498 -8.13048914 5.81049207 -6.71118164 4.37451172 C-5.88682617 3.53033691 -5.0624707 2.68616211 -4.21313477 1.81640625 C-1.92993164 0.11669922 -1.92993164 0.11669922 0 0 Z " fill="#19DE86" transform="translate(315.929931640625,10.88330078125)"/>
<path d="M0 0 C2.475 0.495 2.475 0.495 5 1 C5 1.66 5 2.32 5 3 C5.66 3 6.32 3 7 3 C7 4.65 7 6.3 7 8 C5.8274869 7.04882866 4.66212985 6.08882991 3.5 5.125 C2.8503125 4.59132812 2.200625 4.05765625 1.53125 3.5078125 C1.0259375 3.01023438 0.520625 2.51265625 0 2 C0 1.34 0 0.68 0 0 Z " fill="#15251D" transform="translate(314,235)"/>
<path d="M0 0 C2.66735273 2.48952921 4.55746343 4.63408134 6 8 C3 8 3 8 1 7 C0.59270772 4.67843403 0.25561323 2.3431213 0 0 Z " fill="#16241E" transform="translate(332,371)"/>
<path d="M0 0 C3.7952131 1.49097658 5.61042731 3.75700849 8 7 C6.0625 6.6875 6.0625 6.6875 4 6 C3.67 5.01 3.34 4.02 3 3 C2.01 2.67 1.02 2.34 0 2 C0 1.34 0 0.68 0 0 Z " fill="#15291E" transform="translate(256,455)"/>
<path d="M0 0 C3.83736322 0.95934081 4.59660228 1.23609263 7 4 C6.67 4.99 6.34 5.98 6 7 C4.02 4.69 2.04 2.38 0 0 Z " fill="#19CA79" transform="translate(250,675)"/>
</svg>
